HIERARCHY
ROOT Pelvis
{
	OFFSET 0.000000 0.941512 0.000000
	CHANNELS 6 Xposition Yposition Zposition Zrotation Yrotation Xrotation 
	JOINT Pelvis_L_Hip
	{
		OFFSET 0.000000 0.000000 0.000000
		CHANNELS 3 Zrotation Yrotation Xrotation
		JOINT L_Hip
		{
			OFFSET 0.062321 -0.080322 -0.016990
			CHANNELS 3 Zrotation Yrotation Xrotation
			JOINT L_Knee
			{
				OFFSET 0.093051 -0.381305 -0.029784
				CHANNELS 3 Zrotation Yrotation Xrotation
				JOINT L_Ankle
				{
					OFFSET -0.010371 -0.431000 -0.033614
					CHANNELS 3 Zrotation Yrotation Xrotation
					End Site #name: L_Foot
					{
						OFFSET 0.069299 -0.038670 0.119418
					}
				}
			}
		}
	}
	JOINT Pelvis_R_Hip
	{
		OFFSET 0.000000 0.000000 0.000000
		CHANNELS 3 Zrotation Yrotation Xrotation
		JOINT R_Hip
		{
			OFFSET -0.055334 -0.094904 -0.002373
			CHANNELS 3 Zrotation Yrotation Xrotation
			JOINT R_Knee
			{
				OFFSET -0.064207 -0.384370 -0.019592
				CHANNELS 3 Zrotation Yrotation Xrotation
				JOINT R_Ankle
				{
					OFFSET 0.025418 -0.419734 -0.065953
					CHANNELS 3 Zrotation Yrotation Xrotation
					End Site #name: R_Foot
					{
						OFFSET -0.057233 -0.039888 0.132134
					}
				}
			}
		}
	}
	JOINT Pelvis_Spine1
	{
		OFFSET 0.000000 0.000000 0.000000
		CHANNELS 3 Zrotation Yrotation Xrotation
		JOINT Spine1
		{
			OFFSET -0.005562 0.124093 -0.043360
			CHANNELS 3 Zrotation Yrotation Xrotation
			JOINT Spine2
			{
				OFFSET 0.012244 0.139499 0.029894
				CHANNELS 3 Zrotation Yrotation Xrotation
				JOINT Spine3
				{
					OFFSET -0.002556 0.056561 0.009225
					CHANNELS 3 Zrotation Yrotation Xrotation
					JOINT Spine3_Neck
					{
						OFFSET 0.000000 0.000000 0.000000
						CHANNELS 3 Zrotation Yrotation Xrotation
						JOINT Neck
						{
							OFFSET -0.005205 0.217920 -0.024551
							CHANNELS 3 Zrotation Yrotation Xrotation
							End Site #name: Head
							{
								OFFSET 0.002365 0.091850 0.046637
							}
						}
					}
					JOINT Spine3_L_Collar
					{
						OFFSET 0.000000 0.000000 0.000000
						CHANNELS 3 Zrotation Yrotation Xrotation
						JOINT L_Collar
						{
							OFFSET 0.072225 0.116603 -0.009480
							CHANNELS 3 Zrotation Yrotation Xrotation
							JOINT L_Shoulder
							{
								OFFSET 0.115937 -0.058643 -0.021018
								CHANNELS 3 Zrotation Yrotation Xrotation
								JOINT L_Elbow
								{
									OFFSET 0.021994 -0.254722 -0.024492
									CHANNELS 3 Zrotation Yrotation Xrotation
									End Site #name: L_Wrist
									{
										OFFSET 0.048810 -0.240214 0.103329
									}
								}
							}
						}
					}
					JOINT Spine3_R_Collar
					{
						OFFSET 0.000000 0.000000 0.000000
						CHANNELS 3 Zrotation Yrotation Xrotation
						JOINT R_Collar
						{
							OFFSET -0.073372 0.120704 -0.024611
							CHANNELS 3 Zrotation Yrotation Xrotation
							JOINT R_Shoulder
							{
								OFFSET -0.108089 -0.054969 -0.020504
								CHANNELS 3 Zrotation Yrotation Xrotation
								JOINT R_Elbow
								{
									OFFSET -0.033684 -0.260739 0.009889
									CHANNELS 3 Zrotation Yrotation Xrotation
									End Site #name: R_Wrist
									{
										OFFSET -0.067980 -0.232763 0.118463
									}
								}
							}
						}
					}
				}
			}
		}
	}
}
MOTION
Frames: 5
Frame Time: 0.041667
0.000000 0.935261 0.000000 -5.275599 0.508527 0.316848 0.000000 0.000000 0.000000 6.015547 -4.606357 -22.073537 1.080587 -1.362646 33.921202 1.969568 -5.986611 -6.285289 0.000000 0.000000 0.000000 -11.337655 1.659161 -16.088198 -1.020459 1.327180 16.671015 6.531539 -3.081937 17.527463 0.000000 0.000000 0.000000 1.912256 -1.378701 8.672904 2.848864 -0.385542 4.073792 1.493771 1.484446 0.007891 0.000000 0.000000 0.000000 0.003064 -0.135108 4.067324 0.000000 0.000000 0.000000 31.039701 -2.996532 4.390202 -9.244798 0.070507 -4.967131 -5.580943 -14.048848 -36.703125 0.000000 0.000000 0.000000 -31.484952 2.502511 4.465178 15.041800 -1.961983 9.629599 -12.334423 -2.269347 -22.443512 
0.017294 0.941755 -0.014343 -5.880619 -0.966182 1.259396 0.000000 0.000000 0.000000 5.097118 -4.717184 -22.352095 2.004621 -1.480750 31.483229 1.460884 -4.628860 -4.879926 0.000000 0.000000 0.000000 -10.368008 1.893967 -17.113865 -1.072231 1.147775 13.542345 5.517477 -5.926234 17.947956 0.000000 0.000000 0.000000 2.265786 -1.532754 9.271628 2.920597 -0.407519 3.469159 1.360769 0.731182 -0.347786 0.000000 0.000000 0.000000 -0.324714 0.099983 2.893948 0.000000 0.000000 0.000000 30.292007 -3.715709 3.181885 -13.856094 0.528977 -3.895485 -9.734893 -18.271120 -37.498109 0.000000 0.000000 0.000000 -30.947702 2.976639 4.317142 16.791233 -1.786946 8.676794 -8.817238 1.439153 -26.480104 
0.029764 0.947001 -0.026550 -6.497060 -2.059488 1.555287 0.000000 0.000000 0.000000 4.309182 -4.775531 -22.353379 3.313409 -1.795535 29.799217 0.936944 -3.844685 -3.649270 0.000000 0.000000 0.000000 -8.531061 2.058381 -16.602891 -0.273761 0.914644 13.111632 3.819711 -3.421040 11.402902 0.000000 0.000000 0.000000 2.516746 -1.616910 9.492699 2.806431 -0.387804 3.224933 1.383254 0.056036 -0.615309 0.000000 0.000000 0.000000 -0.692585 0.320944 2.312362 0.000000 0.000000 0.000000 29.696117 -4.805400 1.790716 -17.700477 1.003191 -2.897607 -12.807654 -21.198839 -37.503692 0.000000 0.000000 0.000000 -30.596103 3.529999 4.049857 18.975720 -1.831289 8.500362 -6.377081 4.250562 -29.023654 
0.038200 0.949258 -0.039240 -6.596017 -2.374390 1.533716 0.000000 0.000000 0.000000 3.470580 -4.932471 -22.656575 4.269176 -2.055769 28.827026 0.486278 -3.656081 -2.792855 0.000000 0.000000 0.000000 -6.573044 2.194340 -16.198978 1.352026 0.779004 18.490587 2.961650 1.170362 5.698500 0.000000 0.000000 0.000000 2.326047 -1.506745 9.085172 2.680577 -0.362030 3.278983 1.283220 -0.327393 -0.743599 0.000000 0.000000 0.000000 -0.746138 0.356795 2.054849 0.000000 0.000000 0.000000 29.168524 -5.685489 0.801929 -20.557662 1.079412 -3.365183 -15.470126 -23.066201 -36.281248 0.000000 0.000000 0.000000 -30.092977 3.420648 4.156037 21.684392 -1.985802 8.630143 -5.158743 5.815579 -30.501365 
0.043291 0.948534 -0.052829 -6.102335 -2.134478 1.142303 0.000000 0.000000 0.000000 2.427366 -5.197578 -23.202117 4.786265 -2.238740 28.632808 0.095394 -3.700922 -2.143846 0.000000 0.000000 0.000000 -4.808744 2.252217 -15.557714 3.279941 0.515628 27.525124 1.216896 0.849817 2.137396 0.000000 0.000000 0.000000 1.841422 -1.285777 8.386821 2.327650 -0.292457 3.396845 1.060221 -0.430853 -0.893442 0.000000 0.000000 0.000000 -0.556400 0.253231 2.212519 0.000000 0.000000 0.000000 28.281488 -6.570715 -0.087637 -22.043120 0.932291 -4.231166 -17.229191 -23.978880 -34.993328 0.000000 0.000000 0.000000 -29.648570 3.519739 3.938345 24.144401 -2.335185 9.353222 -4.044630 6.945752 -30.821776 
